<svg id="ima_mas" xmlns="http://www.w3.org/2000/svg" width="44" height="44" viewBox="0 0 44 44">
  <g id="Grupo_3111" data-name="Grupo 3111" transform="translate(8.167 8.508)">
    <path id="Trazado_5098" data-name="Trazado 5098" d="M162.088,258.988c-.185-4-2.777-7.847-6.6-8.412a7.273,7.273,0,0,0-1.054-.076,7.725,7.725,0,0,0-6.884,4.53,7.46,7.46,0,0,0-13.159-1.066c-3.382,5.016-.357,11.017,3.392,14.491,3.2,2.966,6.541,5.747,9.767,8.676q2.778-2.451,5.542-4.921C156.9,268.813,162.374,265.165,162.088,258.988Z" transform="translate(-132.928 -250.501)" stroke="#000" stroke-linecap="round" stroke-linejoin="round" stroke-width="2"/>
    <path id="Trazado_5099" data-name="Trazado 5099" d="M130.961,263.594H138.6l2.136-5.03,4.958,8.743,3.622-7.113,1.974,3.4" transform="translate(-133.297 -250.135)" fill="none" stroke="#fff" stroke-linecap="round" stroke-linejoin="round" stroke-width="2"/>
  </g>
  <rect id="Rectángulo_1576" data-name="Rectángulo 1576" width="44" height="44" fill="none"/>
</svg>
